<svg width="200" height="60" viewBox="0 0 200 60" fill="none" xmlns="http://www.w3.org/2000/svg">
  <!-- Drone Icon -->
  <g transform="translate(10, 15)">
    <!-- Center body -->
    <circle cx="15" cy="15" r="4" fill="#FF6B35" stroke="#1a1a1a" stroke-width="1"/>
    
    <!-- Arms -->
    <line x1="15" y1="15" x2="5" y2="5" stroke="#1a1a1a" stroke-width="2" stroke-linecap="round"/>
    <line x1="15" y1="15" x2="25" y2="5" stroke="#1a1a1a" stroke-width="2" stroke-linecap="round"/>
    <line x1="15" y1="15" x2="5" y2="25" stroke="#1a1a1a" stroke-width="2" stroke-linecap="round"/>
    <line x1="15" y1="15" x2="25" y2="25" stroke="#1a1a1a" stroke-width="2" stroke-linecap="round"/>
    
    <!-- Propellers -->
    <circle cx="5" cy="5" r="3.5" fill="none" stroke="#FF6B35" stroke-width="1.5"/>
    <circle cx="25" cy="5" r="3.5" fill="none" stroke="#FF6B35" stroke-width="1.5"/>
    <circle cx="5" cy="25" r="3.5" fill="none" stroke="#FF6B35" stroke-width="1.5"/>
    <circle cx="25" cy="25" r="3.5" fill="none" stroke="#FF6B35" stroke-width="1.5"/>
    
    <!-- Propeller blades -->
    <path d="M 5 2 L 5 8" stroke="#1a1a1a" stroke-width="1"/>
    <path d="M 2 5 L 8 5" stroke="#1a1a1a" stroke-width="1"/>
    <path d="M 25 2 L 25 8" stroke="#1a1a1a" stroke-width="1"/>
    <path d="M 22 5 L 28 5" stroke="#1a1a1a" stroke-width="1"/>
    <path d="M 5 22 L 5 28" stroke="#1a1a1a" stroke-width="1"/>
    <path d="M 2 25 L 8 25" stroke="#1a1a1a" stroke-width="1"/>
    <path d="M 25 22 L 25 28" stroke="#1a1a1a" stroke-width="1"/>
    <path d="M 22 25 L 28 25" stroke="#1a1a1a" stroke-width="1"/>
  </g>
  
  <!-- Brand Text -->
  <text x="55" y="28" font-family="Arial, sans-serif" font-size="20" font-weight="bold" fill="#1a1a1a">
    Wurenji
  </text>
  <text x="55" y="43" font-family="Arial, sans-serif" font-size="11" font-weight="600" fill="#FF6B35" letter-spacing="1">
    UAV
  </text>
  
  <!-- Tagline -->
  <text x="130" y="35" font-family="Arial, sans-serif" font-size="8" fill="#666" font-style="italic">
    Professional Drones
  </text>
</svg>
